<svg width="381" height="381" viewBox="0 0 381 381" fill="none" xmlns="http://www.w3.org/2000/svg">
<path d="M299.301 364.822H74.961C72.9298 364.817 70.983 364.009 69.5451 362.574C68.1071 361.14 67.2946 359.195 67.2847 357.164C67.2896 355.13 68.1 353.18 69.5385 351.741C70.977 350.303 72.9266 349.493 74.961 349.488H299.301C301.332 349.498 303.276 350.31 304.711 351.748C306.145 353.186 306.953 355.133 306.958 357.164C306.948 359.192 306.138 361.134 304.704 362.568C303.27 364.002 301.328 364.812 299.301 364.822Z" fill="#DBD7D6"/>
<path d="M162.797 58.9517C140.895 52.5892 121.507 52.1387 109.495 63.9253C98.6843 74.5108 107.299 92.2657 130.929 101.012C154.558 109.758 187.234 108.313 195.06 95.6253C202.887 82.9378 191.438 67.3037 162.797 58.9517ZM190.95 94.0675C181.885 101.575 157.261 101.124 135.94 93.2229C114.619 85.3214 104.69 72.8967 113.755 65.4831C122.821 58.0696 147.539 58.4262 168.766 66.3277C189.993 74.2292 199.94 86.654 190.875 94.0675H190.95Z" fill="#F09532"/>
<path d="M109.495 63.9253C109.346 66.5075 109.6 69.0972 110.246 71.6016C111.149 69.8275 112.341 68.2163 113.774 66.8345C122.839 59.3271 147.388 58.4074 168.709 66.3089C185.976 72.709 195.117 84.0827 193.39 91.3648C194.174 90.7617 194.909 90.0964 195.586 89.3754C196.122 88.6326 196.712 87.93 197.35 87.2733C197.087 76.7442 185.395 65.5019 162.816 58.9329C140.895 52.5516 121.507 52.1387 109.495 63.9253Z" fill="#F09532"/>
<path d="M231.021 60.6972C252.511 54.5036 271.317 54.1845 282.503 65.9148C292.563 76.4627 283.516 94.0675 260.262 102.532C237.008 110.997 205.383 109.439 198.326 96.9015C191.269 84.3642 202.849 68.8051 231.021 60.6972ZM202.418 95.3062C210.92 102.814 234.812 102.495 255.777 94.7807C276.741 87.0669 286.876 74.8298 278.299 67.435C269.722 60.0403 245.923 60.2655 224.94 67.9606C203.957 75.6556 193.934 87.9114 202.418 95.3062Z" fill="#F09532"/>
<path d="M282.503 65.9148C282.527 68.4542 282.18 70.9836 281.471 73.4222C280.666 71.6708 279.575 70.066 278.242 68.6738C269.74 61.2602 245.979 60.1529 224.996 67.848C207.992 74.0791 198.72 85.3026 200.09 92.5097C199.35 91.9509 198.665 91.3225 198.045 90.6329C197.144 89.5631 196.994 89.0188 196.393 88.5496C197.069 78.1143 208.855 67.0409 231.002 60.6784C252.511 54.4285 271.317 54.1845 282.503 65.9148Z" fill="#F09532"/>
<path d="M177.568 46.6584C161.408 29.3163 144.517 18.8998 128.395 23.8547C113.83 28.3216 112.911 49.5675 129.465 70.0626C146.018 90.5578 175.391 106.023 188.341 98.0277C200.991 90.22 198.795 69.4433 177.568 46.6584ZM185.413 94.4054C173.889 96.7514 152.456 83.6886 137.516 65.2204C122.576 46.7522 119.818 29.8606 131.323 27.4957C142.828 25.1309 164.28 38.1938 179.22 56.6807C194.159 75.1677 196.918 91.9655 185.413 94.4054Z" fill="#F09532"/>
<path d="M128.395 23.8547C127.029 26.249 126.018 28.8282 125.392 31.5122C127.013 30.31 128.828 29.3958 130.759 28.8096C142.283 26.4447 164.317 38.1938 179.257 56.662C191.344 71.6768 193.934 87.1232 188.942 93.1104C189.918 92.9484 190.879 92.7035 191.813 92.3784C192.63 91.9446 193.484 91.5865 194.366 91.3086C199.17 81.1736 194.366 64.5072 177.606 46.6396C161.408 29.3163 144.517 18.8998 128.395 23.8547Z" fill="#F09532"/>
<path d="M213.96 47.5217C229.613 30.2923 245.867 19.9884 261.332 24.9996C275.277 29.5603 276.046 50.825 259.999 71.1888C243.952 91.5526 215.837 106.98 203.356 98.8347C191.25 90.952 193.503 70.1002 213.96 47.5217ZM206.115 95.2124C217.17 97.6523 237.834 84.7208 252.304 66.3465C266.775 47.9722 269.534 31.0993 258.498 28.6594C247.462 26.2195 226.779 39.151 212.309 57.5253C197.838 75.8997 195.192 92.7913 206.19 95.2124H206.115Z" fill="#F09532"/>
<path d="M261.407 25.0371C262.722 27.4456 263.683 30.0309 264.26 32.7134C262.715 31.537 260.983 30.6297 259.136 30.0295C248.081 27.5896 226.854 39.1885 212.384 57.5629C200.672 72.465 198.082 87.9302 202.849 93.9737C201.915 93.8009 200.997 93.5434 200.109 93.2042C199.319 92.7791 198.497 92.4152 197.651 92.1156C193.09 81.9619 197.895 65.3142 214.035 47.5593C229.688 30.2923 245.867 19.9884 261.407 25.0371Z" fill="#F09532"/>
<path d="M197.463 47.503C191.832 68.1483 190.988 85.5654 200.24 94.4242C208.555 102.438 223.138 91.9655 230.852 69.4433C238.566 46.9212 238.078 17.8676 227.98 12.8751C217.883 7.88273 204.895 20.4576 197.463 47.503ZM226.554 16.8916C232.353 23.8172 231.471 45.9452 224.583 66.2902C217.695 86.6352 207.391 97.4834 201.592 90.5391C195.792 83.5947 196.674 61.4855 203.562 41.1592C210.451 20.833 220.754 9.85342 226.554 16.8916Z" fill="#F09532"/>
<path d="M200.24 94.4429C202.404 94.1525 204.507 93.5189 206.471 92.566C205.07 92.0382 203.792 91.2268 202.718 90.1824C196.918 83.2381 196.693 61.3916 203.581 41.0653C209.212 24.5679 218.596 14.583 224.452 14.9772C223.987 14.3779 223.465 13.8248 222.894 13.3255C222.049 12.6311 221.599 12.5748 221.242 12.0681C212.703 13.9449 203.318 26.2383 197.481 47.5029C191.795 68.1295 190.987 85.5654 200.24 94.4429Z" fill="#F09532"/>
<path d="M194.929 47.1651C200.785 68.0357 201.517 85.6593 191.663 94.5931C182.823 102.607 167.471 91.9655 159.531 69.0304C151.592 46.0953 152.231 16.854 162.947 11.8804C173.664 6.90674 187.253 19.7819 194.929 47.1651ZM164.374 15.9344C158.18 22.8975 158.968 45.2507 166.119 65.8585C173.27 86.4663 184.081 97.596 190.255 90.5391C196.43 83.4821 195.661 61.2039 188.51 40.5962C181.359 19.9884 170.549 8.95251 164.374 15.9344Z" fill="#F09532"/>
<path d="M191.663 94.5931C189.384 94.3108 187.161 93.6777 185.075 92.7162C186.56 92.1989 187.926 91.3883 189.092 90.3326C195.267 83.3507 195.661 61.279 188.51 40.6712C182.729 23.9861 172.82 13.8136 166.626 14.1889C167.119 13.5777 167.672 13.018 168.278 12.5185C169.197 11.8429 169.648 11.7678 170.042 11.261C179.069 13.2505 188.81 25.694 194.929 47.2402C200.822 68.0357 201.517 85.6593 191.663 94.5931Z" fill="#F09532"/>
<path d="M298.982 357.783H78.9963L52.2324 112.198H326.909L298.982 357.783Z" fill="#4F5B81"/>
<mask id="mask0_37_480" style="mask-type:luminance" maskUnits="userSpaceOnUse" x="52" y="112" width="275" height="246">
<path d="M298.982 357.783H78.9963L52.2324 112.198H326.909L298.982 357.783Z" fill="white"/>
</mask>
<g mask="url(#mask0_37_480)">
<path d="M64.4406 269.209C70.3657 262.057 69.3711 251.456 62.219 245.53C55.067 239.605 44.4659 240.6 38.5408 247.752C32.6157 254.904 33.6104 265.505 40.7624 271.43C47.9144 277.355 58.5155 276.361 64.4406 269.209Z" fill="#E2C97A"/>
<path d="M185.582 173.852C192.631 173.852 198.345 168.138 198.345 161.09C198.345 154.041 192.631 148.327 185.582 148.327C178.534 148.327 172.82 154.041 172.82 161.09C172.82 168.138 178.534 173.852 185.582 173.852Z" fill="#E2C97A"/>
<path d="M94.7618 170.024C95.6179 172.031 95.8596 174.247 95.4565 176.392C95.0533 178.536 94.0233 180.513 92.4967 182.073C90.9701 183.632 89.0154 184.704 86.8798 185.153C84.7441 185.602 82.5233 185.407 80.4982 184.594C78.4731 183.781 76.7346 182.385 75.5023 180.584C74.2701 178.783 73.5995 176.657 73.5754 174.475C73.5512 172.293 74.1746 170.152 75.3666 168.325C76.5587 166.497 78.2659 165.063 80.2726 164.205C81.6059 163.635 83.0385 163.334 84.4884 163.318C85.9384 163.302 87.3773 163.571 88.7229 164.112C90.0685 164.652 91.2945 165.452 92.3307 166.467C93.3668 167.481 94.193 168.69 94.7618 170.024Z" fill="#E2C97A"/>
<path d="M186.025 246.599C188.068 240.857 185.068 234.546 179.326 232.503C173.583 230.461 167.272 233.46 165.23 239.202C163.187 244.945 166.186 251.256 171.929 253.298C177.671 255.341 183.982 252.342 186.025 246.599Z" fill="#E2C97A"/>
<path d="M52.3263 150.542C52.6343 151.262 52.7219 152.057 52.578 152.827C52.434 153.597 52.065 154.307 51.5177 154.867C50.9703 155.427 50.269 155.813 49.5027 155.974C48.7363 156.136 47.9392 156.067 47.2122 155.775C46.4852 155.484 45.8609 154.984 45.4182 154.338C44.9756 153.691 44.7344 152.929 44.7254 152.145C44.7163 151.362 44.9397 150.594 45.3672 149.938C45.7948 149.281 46.4073 148.767 47.1274 148.459C48.0936 148.051 49.1818 148.04 50.1554 148.431C51.129 148.821 51.9092 149.579 52.3263 150.542Z" fill="#E2C97A"/>
<path d="M96.4512 233.667C96.7593 234.388 96.8469 235.183 96.703 235.953C96.559 236.723 96.19 237.433 95.6426 237.993C95.0952 238.553 94.394 238.938 93.6277 239.1C92.8613 239.262 92.0642 239.192 91.3372 238.901C90.6102 238.61 89.9859 238.109 89.5432 237.463C89.1006 236.817 88.8594 236.054 88.8504 235.271C88.8413 234.488 89.0646 233.719 89.4922 233.063C89.9197 232.407 90.5323 231.892 91.2524 231.584C91.7302 231.377 92.2443 231.267 92.765 231.259C93.2858 231.252 93.8028 231.348 94.2862 231.542C94.7696 231.735 95.2098 232.023 95.5815 232.388C95.9531 232.753 96.2487 233.188 96.4512 233.667Z" fill="#E2C97A"/>
<path d="M207.26 267.695C207.567 268.414 207.653 269.209 207.508 269.977C207.364 270.746 206.995 271.455 206.448 272.014C205.901 272.573 205.201 272.958 204.436 273.12C203.67 273.282 202.874 273.213 202.148 272.923C201.422 272.633 200.797 272.135 200.354 271.49C199.911 270.846 199.668 270.085 199.657 269.302C199.645 268.52 199.866 267.752 200.291 267.096C200.715 266.439 201.325 265.922 202.043 265.611C202.522 265.404 203.037 265.293 203.559 265.286C204.081 265.278 204.6 265.374 205.085 265.568C205.57 265.761 206.012 266.049 206.385 266.414C206.758 266.779 207.056 267.214 207.26 267.695Z" fill="#E2C97A"/>
<path d="M159.044 161.972C159.352 162.692 159.44 163.487 159.296 164.257C159.152 165.027 158.783 165.737 158.235 166.297C157.688 166.857 156.987 167.243 156.22 167.404C155.454 167.566 154.657 167.497 153.93 167.205C153.203 166.914 152.579 166.414 152.136 165.768C151.693 165.121 151.452 164.359 151.443 163.575C151.434 162.792 151.657 162.024 152.085 161.368C152.513 160.711 153.125 160.197 153.845 159.889C154.323 159.684 154.837 159.576 155.357 159.57C155.877 159.564 156.393 159.66 156.876 159.853C157.359 160.047 157.799 160.334 158.171 160.697C158.543 161.061 158.839 161.494 159.044 161.972Z" fill="#E2C97A"/>
<path d="M149.059 209.118C148.596 210.54 147.718 211.791 146.539 212.711C145.361 213.631 143.934 214.178 142.442 214.281C140.95 214.385 139.462 214.041 138.167 213.293C136.872 212.546 135.83 211.428 135.174 210.085C134.518 208.741 134.279 207.232 134.486 205.751C134.694 204.27 135.338 202.885 136.338 201.773C137.338 200.661 138.647 199.873 140.097 199.51C141.548 199.146 143.074 199.224 144.479 199.734C146.311 200.398 147.813 201.748 148.668 203.5C149.522 205.251 149.663 207.266 149.059 209.118Z" fill="#E2C97A"/>
<path d="M114.112 266.906C114.579 267.996 114.712 269.199 114.494 270.363C114.276 271.528 113.718 272.602 112.89 273.449C112.061 274.296 111 274.879 109.841 275.123C108.681 275.366 107.475 275.261 106.376 274.819C105.277 274.377 104.333 273.619 103.665 272.64C102.996 271.662 102.634 270.507 102.622 269.322C102.61 268.138 102.95 266.976 103.599 265.985C104.248 264.993 105.177 264.217 106.267 263.753C106.989 263.444 107.765 263.28 108.551 263.271C109.336 263.262 110.116 263.408 110.844 263.701C111.573 263.994 112.237 264.428 112.798 264.978C113.359 265.528 113.805 266.183 114.112 266.906Z" fill="#E2C97A"/>
<path d="M199.79 195.192C200.26 196.28 200.396 197.483 200.181 198.649C199.967 199.815 199.411 200.891 198.585 201.74C197.758 202.59 196.698 203.175 195.539 203.421C194.379 203.668 193.173 203.565 192.072 203.125C190.971 202.685 190.026 201.929 189.356 200.951C188.685 199.974 188.32 198.819 188.307 197.634C188.293 196.449 188.631 195.286 189.279 194.293C189.927 193.301 190.855 192.523 191.945 192.058C193.401 191.437 195.044 191.418 196.515 192.005C197.985 192.593 199.163 193.738 199.79 195.192Z" fill="#E2C97A"/>
<path d="M160.264 260.412C160.572 261.133 160.659 261.928 160.515 262.698C160.372 263.468 160.003 264.178 159.455 264.738C158.908 265.298 158.207 265.683 157.44 265.845C156.674 266.007 155.877 265.937 155.15 265.646C154.423 265.355 153.798 264.854 153.356 264.208C152.913 263.562 152.672 262.799 152.663 262.016C152.654 261.233 152.877 260.464 153.305 259.808C153.732 259.152 154.345 258.637 155.065 258.329C155.543 258.125 156.057 258.016 156.577 258.01C157.097 258.004 157.613 258.101 158.096 258.294C158.579 258.488 159.018 258.774 159.39 259.138C159.762 259.501 160.059 259.934 160.264 260.412Z" fill="#E2C97A"/>
<path d="M104.484 141.552C104.662 141.976 104.711 142.443 104.624 142.894C104.537 143.346 104.318 143.761 103.995 144.088C103.672 144.415 103.259 144.64 102.809 144.733C102.359 144.826 101.891 144.783 101.465 144.611C101.039 144.438 100.673 144.143 100.415 143.763C100.156 143.383 100.016 142.935 100.011 142.475C100.007 142.016 100.139 141.565 100.391 141.18C100.642 140.795 101.002 140.494 101.425 140.313C101.707 140.193 102.01 140.129 102.317 140.126C102.623 140.123 102.928 140.181 103.212 140.296C103.496 140.411 103.755 140.582 103.973 140.797C104.192 141.013 104.365 141.269 104.484 141.552Z" fill="#E2C97A"/>
<path d="M237.196 215.837C237.196 213.673 237.838 211.558 239.04 209.758C240.242 207.959 241.951 206.556 243.95 205.728C245.95 204.9 248.15 204.683 250.273 205.106C252.395 205.528 254.345 206.57 255.875 208.1C257.405 209.631 258.447 211.58 258.87 213.703C259.292 215.825 259.075 218.025 258.247 220.025C257.419 222.024 256.016 223.733 254.217 224.935C252.417 226.138 250.302 226.779 248.138 226.779C246.7 226.782 245.276 226.501 243.948 225.952C242.619 225.403 241.412 224.597 240.395 223.58C239.379 222.564 238.573 221.356 238.024 220.028C237.475 218.699 237.193 217.275 237.196 215.837Z" fill="#E2C97A"/>
<path d="M326.008 208.33C325.295 206.624 325.101 204.745 325.451 202.929C325.802 201.114 326.681 199.442 327.979 198.124C329.276 196.807 330.934 195.902 332.744 195.523C334.555 195.145 336.436 195.309 338.153 195.997C339.87 196.684 341.345 197.863 342.394 199.386C343.443 200.909 344.019 202.708 344.049 204.557C344.078 206.406 343.561 208.223 342.562 209.779C341.563 211.335 340.127 212.561 338.433 213.304C337.292 213.804 336.063 214.072 334.817 214.092C333.572 214.112 332.335 213.884 331.178 213.421C330.022 212.958 328.969 212.269 328.081 211.395C327.194 210.521 326.489 209.479 326.008 208.33Z" fill="#E2C97A"/>
<path d="M253.131 154.558C251.421 153.855 249.957 152.663 248.922 151.132C247.887 149.6 247.328 147.796 247.314 145.948C247.301 144.099 247.833 142.288 248.845 140.741C249.857 139.194 251.304 137.98 253.003 137.253C254.702 136.525 256.579 136.315 258.397 136.649C260.215 136.984 261.894 137.848 263.222 139.133C264.551 140.419 265.471 142.068 265.866 143.874C266.261 145.679 266.114 147.562 265.443 149.284C264.99 150.446 264.31 151.507 263.443 152.403C262.576 153.299 261.54 154.014 260.393 154.505C259.247 154.996 258.014 155.253 256.767 155.263C255.52 155.272 254.284 155.032 253.131 154.558Z" fill="#E2C97A"/>
<path d="M324.544 153.695C324.297 153.073 324.238 152.392 324.376 151.737C324.514 151.082 324.843 150.482 325.321 150.013C325.799 149.545 326.404 149.227 327.062 149.101C327.719 148.975 328.399 149.047 329.016 149.306C329.633 149.565 330.16 150.001 330.53 150.559C330.901 151.117 331.098 151.771 331.097 152.441C331.097 153.11 330.899 153.764 330.527 154.321C330.156 154.878 329.629 155.313 329.011 155.572C328.595 155.746 328.149 155.835 327.698 155.835C327.247 155.835 326.8 155.744 326.384 155.57C325.969 155.395 325.592 155.139 325.276 154.817C324.96 154.496 324.711 154.114 324.544 153.695Z" fill="#E2C97A"/>
<path d="M229.557 124.529C229.382 124.118 229.289 123.678 229.285 123.231C229.28 122.785 229.363 122.343 229.53 121.929C229.696 121.515 229.943 121.138 230.255 120.819C230.567 120.5 230.939 120.246 231.349 120.071C231.76 119.896 232.2 119.804 232.647 119.799C233.093 119.795 233.535 119.878 233.949 120.044C234.363 120.211 234.74 120.457 235.059 120.769C235.378 121.081 235.632 121.453 235.807 121.864C236.16 122.692 236.17 123.628 235.834 124.464C235.498 125.3 234.843 125.968 234.014 126.321C233.186 126.675 232.25 126.684 231.414 126.348C230.579 126.012 229.91 125.358 229.557 124.529Z" fill="#E2C97A"/>
<path d="M270.885 215.18C270.621 214.563 270.545 213.881 270.668 213.221C270.791 212.561 271.107 211.952 271.576 211.471C272.045 210.991 272.646 210.66 273.303 210.52C273.96 210.381 274.644 210.44 275.267 210.689C275.891 210.937 276.427 211.366 276.807 211.919C277.188 212.473 277.396 213.126 277.405 213.798C277.414 214.469 277.224 215.128 276.858 215.692C276.493 216.255 275.969 216.698 275.352 216.964C274.523 217.315 273.588 217.325 272.751 216.991C271.915 216.657 271.244 216.007 270.885 215.18Z" fill="#E2C97A"/>
<path d="M279.463 174.753C279.875 173.559 280.633 172.515 281.64 171.752C282.647 170.989 283.857 170.542 285.118 170.468C286.379 170.394 287.634 170.695 288.723 171.335C289.813 171.974 290.688 172.922 291.238 174.059C291.788 175.196 291.988 176.471 291.813 177.722C291.638 178.973 291.096 180.144 290.255 181.086C289.414 182.029 288.313 182.701 287.09 183.017C285.867 183.333 284.577 183.279 283.385 182.861C281.792 182.303 280.484 181.137 279.749 179.617C279.014 178.098 278.911 176.349 279.463 174.753Z" fill="#E2C97A"/>
<path d="M309.417 125.204C309.015 124.269 308.9 123.236 309.086 122.235C309.272 121.234 309.751 120.311 310.462 119.583C311.173 118.854 312.084 118.353 313.08 118.143C314.076 117.933 315.112 118.023 316.057 118.402C317.001 118.781 317.812 119.432 318.387 120.272C318.962 121.112 319.274 122.104 319.284 123.122C319.295 124.139 319.003 125.137 318.446 125.989C317.889 126.841 317.092 127.509 316.155 127.907C315.535 128.173 314.869 128.315 314.195 128.323C313.52 128.331 312.851 128.206 312.225 127.955C311.599 127.704 311.028 127.332 310.547 126.86C310.065 126.388 309.681 125.825 309.417 125.204Z" fill="#E2C97A"/>
<path d="M235.957 186.69C235.552 185.756 235.433 184.722 235.616 183.72C235.799 182.719 236.276 181.794 236.985 181.063C237.694 180.332 238.604 179.829 239.6 179.616C240.596 179.403 241.632 179.49 242.578 179.867C243.524 180.244 244.337 180.893 244.914 181.732C245.49 182.572 245.805 183.563 245.817 184.581C245.83 185.6 245.54 186.599 244.984 187.452C244.428 188.305 243.631 188.974 242.695 189.374C241.445 189.908 240.035 189.925 238.772 189.422C237.51 188.919 236.498 187.937 235.957 186.69Z" fill="#E2C97A"/>
<path d="M269.853 130.779C269.588 130.161 269.513 129.479 269.636 128.819C269.759 128.159 270.075 127.55 270.544 127.069C271.013 126.589 271.614 126.258 272.271 126.119C272.928 125.979 273.611 126.038 274.235 126.287C274.859 126.536 275.395 126.964 275.775 127.517C276.156 128.071 276.363 128.724 276.373 129.396C276.382 130.067 276.191 130.727 275.826 131.29C275.461 131.853 274.936 132.296 274.32 132.562C273.49 132.913 272.556 132.923 271.719 132.59C270.883 132.256 270.212 131.605 269.853 130.779Z" fill="#E2C97A"/>
<path d="M317.675 232.729C317.517 232.364 317.471 231.96 317.543 231.569C317.615 231.178 317.801 230.817 318.078 230.531C318.356 230.246 318.711 230.05 319.1 229.967C319.49 229.884 319.894 229.919 320.264 230.067C320.633 230.215 320.95 230.469 321.175 230.797C321.4 231.125 321.522 231.513 321.526 231.911C321.53 232.308 321.416 232.698 321.198 233.031C320.98 233.364 320.669 233.625 320.303 233.78C319.815 233.987 319.264 233.993 318.772 233.796C318.28 233.599 317.886 233.216 317.675 232.729Z" fill="#E2C97A"/>
<path d="M296.203 293.239C305.1 290.575 310.153 281.202 307.488 272.305C304.824 263.408 295.452 258.355 286.555 261.019C277.657 263.684 272.605 273.056 275.269 281.953C277.933 290.85 287.305 295.903 296.203 293.239Z" fill="#E2C97A"/>
<path d="M265.555 372.235C264.335 370.425 263.678 368.294 263.67 366.111C263.661 363.928 264.299 361.792 265.505 359.972C266.71 358.152 268.428 356.73 270.442 355.887C272.455 355.043 274.673 354.816 276.816 355.234C278.959 355.651 280.929 356.695 282.479 358.232C284.028 359.77 285.087 361.733 285.521 363.872C285.955 366.011 285.745 368.231 284.917 370.251C284.089 372.271 282.681 374 280.87 375.219C279.669 376.031 278.32 376.598 276.9 376.887C275.479 377.177 274.016 377.183 272.593 376.906C271.17 376.628 269.816 376.073 268.609 375.272C267.401 374.47 266.363 373.438 265.555 372.235Z" fill="#E2C97A"/>
<path d="M170.267 326.722C168.125 326.307 166.153 325.267 164.601 323.732C163.05 322.197 161.988 320.237 161.551 318.099C161.113 315.961 161.319 313.741 162.143 311.72C162.967 309.699 164.372 307.968 166.18 306.745C167.988 305.522 170.117 304.863 172.3 304.851C174.482 304.838 176.619 305.473 178.441 306.675C180.262 307.877 181.687 309.592 182.534 311.604C183.38 313.615 183.612 315.833 183.199 317.975C182.635 320.846 180.959 323.376 178.537 325.015C176.114 326.654 173.141 327.267 170.267 326.722Z" fill="#E2C97A"/>
<path d="M251.891 310.055C251.454 309.406 251.218 308.641 251.215 307.858C251.212 307.075 251.441 306.308 251.874 305.655C252.306 305.003 252.923 304.493 253.645 304.19C254.367 303.887 255.163 303.805 255.932 303.955C256.7 304.105 257.408 304.479 257.964 305.03C258.52 305.581 258.9 306.285 259.056 307.053C259.212 307.82 259.137 308.617 258.841 309.341C258.544 310.066 258.04 310.687 257.391 311.125C256.959 311.416 256.475 311.619 255.965 311.723C255.455 311.827 254.93 311.829 254.419 311.729C253.909 311.63 253.422 311.431 252.989 311.144C252.555 310.857 252.182 310.487 251.891 310.055Z" fill="#E2C97A"/>
<path d="M136.672 297.499C136.234 296.85 135.999 296.085 135.996 295.302C135.993 294.519 136.222 293.752 136.655 293.099C137.087 292.446 137.703 291.936 138.426 291.634C139.148 291.331 139.944 291.249 140.712 291.399C141.481 291.548 142.188 291.922 142.744 292.474C143.301 293.025 143.681 293.729 143.837 294.497C143.993 295.264 143.918 296.06 143.622 296.785C143.325 297.51 142.82 298.131 142.171 298.569C141.74 298.86 141.256 299.063 140.746 299.167C140.236 299.27 139.711 299.273 139.2 299.173C138.689 299.074 138.203 298.875 137.769 298.588C137.336 298.3 136.963 297.93 136.672 297.499Z" fill="#E2C97A"/>
<path d="M204.858 344.064C205.062 342.587 205.702 341.205 206.695 340.093C207.688 338.981 208.989 338.19 210.433 337.82C211.878 337.451 213.399 337.52 214.804 338.018C216.209 338.517 217.434 339.422 218.322 340.619C219.211 341.816 219.723 343.251 219.793 344.74C219.863 346.229 219.489 347.705 218.717 348.981C217.945 350.256 216.811 351.273 215.459 351.901C214.107 352.53 212.599 352.741 211.126 352.509C209.183 352.204 207.438 351.147 206.266 349.568C205.093 347.988 204.588 346.012 204.858 344.064Z" fill="#E2C97A"/>
<path d="M315.31 333.797C314.648 332.816 314.292 331.66 314.287 330.476C314.282 329.292 314.628 328.133 315.281 327.145C315.935 326.158 316.866 325.387 317.958 324.929C319.05 324.471 320.253 324.346 321.415 324.572C322.578 324.798 323.647 325.363 324.488 326.196C325.329 327.03 325.904 328.093 326.141 329.254C326.377 330.414 326.264 331.618 325.817 332.714C325.369 333.81 324.606 334.749 323.625 335.411C322.307 336.295 320.693 336.622 319.135 336.319C317.577 336.017 316.202 335.11 315.31 333.797Z" fill="#E2C97A"/>
<path d="M228.281 280.739C227.619 279.757 227.263 278.601 227.257 277.417C227.252 276.233 227.598 275.074 228.252 274.087C228.905 273.1 229.836 272.328 230.928 271.87C232.02 271.412 233.223 271.288 234.385 271.514C235.548 271.739 236.617 272.304 237.458 273.138C238.299 273.971 238.874 275.035 239.111 276.195C239.347 277.355 239.235 278.559 238.787 279.656C238.339 280.752 237.576 281.69 236.595 282.353C235.277 283.237 233.663 283.563 232.105 283.261C230.547 282.958 229.172 282.052 228.281 280.739Z" fill="#E2C97A"/>
<path d="M184.194 295.81C183.756 295.16 183.521 294.396 183.518 293.613C183.514 292.829 183.744 292.063 184.176 291.41C184.609 290.757 185.225 290.247 185.947 289.944C186.669 289.642 187.465 289.56 188.234 289.71C189.003 289.859 189.71 290.233 190.266 290.785C190.822 291.336 191.202 292.04 191.358 292.807C191.515 293.575 191.44 294.371 191.143 295.096C190.847 295.821 190.342 296.442 189.693 296.88C189.261 297.171 188.777 297.374 188.267 297.478C187.757 297.581 187.232 297.583 186.722 297.484C186.211 297.385 185.725 297.186 185.291 296.898C184.857 296.611 184.484 296.241 184.194 295.81Z" fill="#E2C97A"/>
<path d="M140.487 366.424C145.255 358.454 142.66 348.127 134.689 343.359C126.719 338.591 116.393 341.187 111.625 349.157C106.857 357.127 109.452 367.453 117.422 372.221C125.393 376.99 135.719 374.394 140.487 366.424Z" fill="#E2C97A"/>
<path d="M88.3618 307.033C88.8165 305.94 89.5852 305.006 90.5708 304.349C91.5563 303.693 92.7145 303.343 93.8987 303.345C95.0829 303.347 96.24 303.699 97.2236 304.359C98.2073 305.018 98.9734 305.954 99.4249 307.049C99.8764 308.144 99.9932 309.348 99.7604 310.509C99.5276 311.67 98.9558 312.736 98.1171 313.572C97.2784 314.408 96.2107 314.977 95.0489 315.206C93.887 315.435 92.6834 315.315 91.59 314.86C90.1275 314.246 88.9673 313.078 88.3624 311.612C87.7576 310.146 87.7574 308.5 88.3618 307.033Z" fill="#E2C97A"/>
</g>
<path d="M339.728 87.7426H39.4321V128.864H339.728V87.7426Z" fill="#38446A"/>
<path d="M203.656 87.7426H183.461V357.202H203.656V87.7426Z" fill="#EAAC21"/>
<path d="M205.271 86.8041C210.052 90.4591 213.712 95.3812 215.837 101.012C222.122 115.089 224.588 130.573 222.988 145.906C225.518 140.941 228.748 136.364 232.579 132.318C237.138 135.929 241.064 140.274 244.196 145.174C243.178 129.077 239.168 113.312 232.372 98.6846C230.082 93.7297 227.023 88.4557 220.998 86.1472" fill="#FDBF25"/>
<path d="M178.807 86.8792C175.015 88.6529 171.824 91.4975 169.629 95.0622C164.316 102.552 162.098 111.803 163.436 120.888C161.067 117.875 158.258 115.236 155.102 113.061C151.364 114.973 147.955 117.469 145.005 120.456C146.037 110.798 149.576 101.578 155.271 93.7109C157.511 90.1229 161.058 87.5454 165.162 86.5226" fill="#FDBF25"/>
</svg>
