<svg width="220" height="49" viewBox="0 0 220 49" fill="none" xmlns="http://www.w3.org/2000/svg">
<g clip-path="url(#clip0_98_492)">
<path fill-rule="evenodd" clip-rule="evenodd" d="M44.2939 29.0696L31.1045 0.749647H27.4468V36.083H31.9322V12.2696L42.8788 36.083H45.6822L56.6555 12.2696V36.083H61.141V0.749647H57.4832L44.2939 29.0696ZM74.624 32.163V19.8163H91.1774V15.8963H74.624V4.66965H92.5924V0.749647H70.1385V36.083H93.1798V32.163H74.624ZM122.602 0.749647H96.7842V4.66965H107.437V36.083H111.923V4.66965H122.575V0.749647H122.602ZM149.515 0.749647V16.163H132.401V0.749647H127.915V36.083H132.401V20.083H149.515V36.083H154V0.749647H149.515ZM167.51 32.163V19.8163H184.063V15.8963H167.51V4.66965H185.478V0.749647H163.024V36.083H186.066V32.163H167.51ZM197.787 32.163V4.66965H203.1C204.702 4.66965 206.304 5.01631 207.772 5.70965C209.267 6.40298 210.629 7.38965 211.723 8.58965C212.898 9.86965 213.833 11.363 214.447 12.963C215.808 16.483 215.808 20.3496 214.447 23.8696C213.806 25.4696 212.898 26.963 211.723 28.2163C210.602 29.443 209.267 30.403 207.772 31.0963C206.304 31.7896 204.728 32.1363 203.1 32.1363L197.787 32.163ZM218.639 11.4163C217.811 9.33631 216.583 7.41631 215.007 5.78965C213.486 4.21631 211.643 2.96298 209.641 2.08298C207.585 1.17631 205.342 0.72298 203.1 0.749647H193.301V36.083H203.126C205.369 36.1097 207.612 35.6297 209.668 34.7496C211.67 33.8696 213.486 32.6163 215.034 31.043C216.583 29.443 217.838 27.523 218.665 25.443C220.427 20.9363 220.427 15.923 218.639 11.4163Z" fill="white"/>
<path d="M0 0.589844H22.6942V48.3232H0V0.589844Z" fill="url(#paint0_linear_98_492)"/>
<path fill-rule="evenodd" clip-rule="evenodd" d="M28.5144 43.0696C28.6479 42.6963 28.8615 42.3496 29.1018 42.0563C29.3421 41.7896 29.6358 41.5496 29.9562 41.3896C30.5703 41.0696 31.3178 41.0696 31.9319 41.3896C32.2523 41.5496 32.546 41.7896 32.7863 42.0563C33.0533 42.3496 33.2402 42.6963 33.3737 43.0696C33.6674 43.8963 33.6674 44.8296 33.3737 45.6563C33.2402 46.0296 33.0266 46.3763 32.7863 46.6963C32.546 46.963 32.2523 47.203 31.9319 47.363C31.3178 47.683 30.5703 47.683 29.9562 47.363C29.6358 47.203 29.3421 46.963 29.1018 46.6963C28.8348 46.403 28.6479 46.0563 28.5144 45.683C28.2208 44.8296 28.2208 43.8963 28.5144 43.0696ZM34.2814 42.7496C34.0945 42.2696 33.8276 41.8163 33.4805 41.443C33.1601 41.0696 32.7596 40.7763 32.3324 40.563C31.4513 40.1363 30.4368 40.1363 29.5824 40.563C29.1285 40.7763 28.7547 41.0696 28.4343 41.443C28.0873 41.843 27.8203 42.2696 27.6334 42.7496C27.2329 43.7972 27.2329 44.9554 27.6334 46.003C27.8203 46.483 28.0873 46.9363 28.4343 47.3096C28.7547 47.683 29.1552 47.9763 29.5824 48.1896C30.4635 48.6163 31.478 48.6163 32.3324 48.1896C32.7863 47.9763 33.1601 47.683 33.4805 47.3096C33.8276 46.9096 34.0945 46.483 34.2814 46.003C34.6819 44.9363 34.6819 43.7896 34.2814 42.7496ZM40.7426 40.2963V46.4296L36.8445 40.2963H35.9902V48.4296H36.978V42.2963L40.8761 48.4296H41.7305V40.2963H40.7426ZM44.6941 47.523V40.2963H43.7062V48.4296H48.4052V47.523H44.6941ZM50.5144 40.2963H49.5266V48.4296H50.5144V40.2963ZM57.2159 40.2963V46.4296L53.3178 40.2963H52.4635V48.4296H53.4513V42.2963L57.3494 48.4296H58.2038V40.2963H57.2159ZM61.1674 47.523V44.6696H64.7984V43.7896H61.1674V41.203H65.1188V40.2963H60.1795V48.4296H65.2523V47.523H61.1674ZM73.2086 46.803L70.2984 40.2696H69.4975V48.403H70.4853V42.9096L72.8882 48.403H73.5023L75.9052 42.9096V48.403H76.8931V40.2696H76.0921L73.2086 46.803ZM79.8834 47.523V44.6696H83.5144V43.7896H79.8834V41.203H83.8348V40.2963H78.8955V48.4296H83.9683V47.523H79.8834ZM90.4295 40.2963H84.7426V41.203H87.0921V48.4296H88.08V41.203H90.4295V40.2963ZM96.3567 40.2963V43.843H92.5921V40.2963H91.6043V48.4296H92.5921V44.7496H96.3567V48.4296H97.3446V40.2963H96.3567ZM99.9611 43.0696C100.095 42.6963 100.308 42.3496 100.548 42.0563C100.789 41.7896 101.082 41.5496 101.403 41.3896C102.017 41.0696 102.764 41.0696 103.379 41.3896C103.699 41.5496 103.993 41.7896 104.233 42.0563C104.5 42.3496 104.687 42.6963 104.82 43.0696C105.114 43.8963 105.114 44.8296 104.82 45.6563C104.687 46.0296 104.473 46.3763 104.233 46.6963C103.993 46.963 103.699 47.203 103.379 47.363C102.764 47.683 102.017 47.683 101.403 47.363C101.082 47.203 100.789 46.963 100.548 46.6963C100.281 46.403 100.095 46.0563 99.9611 45.683C99.6674 44.8296 99.7208 43.923 99.9611 43.0696ZM105.728 42.7496C105.541 42.2696 105.274 41.8163 104.927 41.443C104.607 41.0696 104.206 40.7763 103.779 40.563C102.898 40.1363 101.883 40.1363 101.029 40.563C100.575 40.7763 100.201 41.0696 99.881 41.443C99.5339 41.843 99.2669 42.2696 99.08 42.7496C98.6795 43.7972 98.6795 44.9554 99.08 46.003C99.2669 46.483 99.5339 46.9363 99.881 47.3096C100.201 47.683 100.602 47.9763 101.029 48.1896C101.91 48.6163 102.925 48.6163 103.779 48.1896C104.233 47.9763 104.607 47.683 104.927 47.3096C105.274 46.9096 105.541 46.483 105.728 46.003C106.129 44.9363 106.129 43.7896 105.728 42.7496ZM108.451 47.523V41.203H109.626C109.973 41.203 110.32 41.283 110.641 41.443C110.961 41.603 111.281 41.843 111.522 42.1096C111.789 42.403 111.976 42.7496 112.109 43.123C112.403 43.923 112.403 44.8296 112.109 45.6296C111.976 46.003 111.762 46.3496 111.522 46.643C111.281 46.9096 110.988 47.1496 110.641 47.3096C110.32 47.4696 109.973 47.5496 109.626 47.5496L108.451 47.523ZM113.017 42.7496C112.83 42.2696 112.563 41.843 112.216 41.4696C111.896 41.123 111.495 40.8296 111.041 40.6163C110.587 40.403 110.107 40.2963 109.599 40.2963H107.437V48.4296H109.599C110.107 48.4296 110.587 48.323 111.041 48.1096C111.495 47.8963 111.896 47.6296 112.216 47.2563C112.563 46.883 112.83 46.4563 113.017 45.9763C113.417 44.9363 113.417 43.7896 113.017 42.7496ZM118.437 47.523V44.6696H122.068V43.7896H118.437V41.203H122.388V40.2963H117.449V48.4296H122.522V47.523H118.437ZM125.112 47.523V41.203H126.286C126.633 41.203 126.98 41.283 127.301 41.443C127.621 41.603 127.942 41.843 128.182 42.1096C128.449 42.403 128.636 42.7496 128.769 43.123C129.063 43.923 129.063 44.8296 128.769 45.6296C128.636 46.003 128.422 46.3496 128.182 46.643C127.942 46.9096 127.648 47.1496 127.301 47.3096C126.98 47.4696 126.633 47.5496 126.286 47.5496L125.112 47.523ZM129.677 42.7496C129.49 42.2696 129.223 41.843 128.876 41.4696C128.556 41.123 128.155 40.8296 127.701 40.6163C127.247 40.403 126.767 40.2963 126.26 40.2963H124.097V48.4296H126.26C126.767 48.4296 127.247 48.323 127.701 48.1096C128.155 47.8963 128.556 47.6296 128.876 47.2563C129.223 46.883 129.49 46.4563 129.677 45.9763C130.078 44.9363 130.078 43.7896 129.677 42.7496ZM135.311 48.2696C135.658 48.1363 135.951 47.923 136.218 47.6563C136.485 47.3896 136.672 47.0696 136.806 46.723C136.939 46.3496 137.019 45.9496 137.019 45.5496V40.2696H136.031V45.5496C136.058 46.083 135.871 46.6163 135.524 47.0163C134.777 47.7363 133.575 47.7363 132.828 47.0163C132.48 46.6163 132.294 46.083 132.32 45.5496V40.2696H131.332V45.5496C131.332 45.9496 131.413 46.3496 131.546 46.723C131.68 47.0696 131.866 47.3896 132.133 47.6296C132.4 47.8963 132.694 48.083 133.041 48.243C133.762 48.563 134.59 48.563 135.311 48.2696ZM142.76 41.283C143 41.3896 143.213 41.523 143.4 41.683C143.587 41.843 143.747 42.0563 143.881 42.2696C144.014 42.5096 144.095 42.7496 144.175 42.9896H145.243C145.136 42.6163 144.976 42.243 144.789 41.8963C144.602 41.5763 144.362 41.2563 144.068 41.0163C143.801 40.7763 143.48 40.563 143.133 40.4296C142.76 40.2963 142.386 40.2163 141.985 40.2163C141.505 40.2163 141.024 40.323 140.597 40.5363C140.143 40.7496 139.769 41.043 139.449 41.4163C139.102 41.8163 138.835 42.243 138.648 42.723C138.247 43.7705 138.247 44.9287 138.648 45.9763C138.835 46.4563 139.102 46.9096 139.449 47.283C139.769 47.6563 140.17 47.9496 140.597 48.163C141.024 48.3763 141.505 48.483 141.985 48.483C142.386 48.483 142.786 48.403 143.16 48.2696C143.507 48.1363 143.854 47.923 144.121 47.683C144.415 47.4163 144.655 47.123 144.842 46.803C145.029 46.4563 145.189 46.1096 145.296 45.7096H144.255C144.175 45.9763 144.095 46.2163 143.961 46.4296C143.828 46.643 143.667 46.8563 143.48 47.0163C143.294 47.1763 143.053 47.3363 142.813 47.4163C142.546 47.523 142.252 47.5763 141.985 47.5763C141.638 47.5763 141.291 47.4963 140.997 47.3363C140.677 47.1763 140.383 46.9363 140.143 46.6696C139.876 46.3763 139.689 46.0296 139.556 45.6563C139.262 44.8296 139.262 43.8963 139.556 43.0696C139.689 42.6963 139.903 42.3496 140.143 42.0563C140.383 41.7896 140.677 41.5496 140.997 41.3896C141.291 41.2296 141.638 41.1496 141.985 41.1496C142.226 41.123 142.493 41.1763 142.76 41.283ZM151.277 48.4296H152.318L149.354 40.2963H148.5L145.536 48.4296H146.578L147.325 46.4296H150.529L151.277 48.4296ZM148.927 41.9763L150.235 45.523H147.646L148.927 41.9763ZM157.684 40.2963H151.997V41.203H154.347V48.4296H155.335V41.203H157.684V40.2963ZM159.847 40.2963H158.859V48.4296H159.847V40.2963ZM162.463 43.0696C162.597 42.6963 162.811 42.3496 163.051 42.0563C163.291 41.7896 163.585 41.5496 163.905 41.3896C164.519 41.0696 165.267 41.0696 165.881 41.3896C166.201 41.5496 166.495 41.7896 166.735 42.0563C167.002 42.3496 167.189 42.6963 167.323 43.0696C167.616 43.8963 167.616 44.8296 167.323 45.6563C167.189 46.0296 166.976 46.3763 166.735 46.6963C166.495 46.963 166.201 47.203 165.881 47.363C165.267 47.683 164.519 47.683 163.905 47.363C163.585 47.203 163.291 46.963 163.051 46.6963C162.784 46.403 162.597 46.0563 162.463 45.683C162.17 44.8296 162.196 43.8963 162.463 43.0696ZM168.23 42.7496C168.044 42.2696 167.777 41.8163 167.429 41.443C167.109 41.0696 166.709 40.7763 166.281 40.563C165.4 40.1363 164.386 40.1363 163.531 40.563C163.078 40.7763 162.704 41.0696 162.383 41.443C162.036 41.843 161.769 42.2696 161.582 42.7496C161.182 43.7972 161.182 44.9554 161.582 46.003C161.769 46.483 162.036 46.9363 162.383 47.3096C162.704 47.683 163.104 47.9763 163.531 48.1896C164.413 48.6163 165.427 48.6163 166.281 48.1896C166.735 47.9763 167.109 47.683 167.429 47.3096C167.777 46.9096 168.044 46.483 168.23 46.003C168.658 44.9363 168.658 43.7896 168.23 42.7496ZM174.718 40.2963V46.4296L170.82 40.2963H169.966V48.4296H170.954V42.2963L174.852 48.4296H175.706V40.2963H174.718ZM180.218 43.5763C180.432 43.8696 180.672 44.1096 180.993 44.2696C181.313 44.4563 181.633 44.5896 181.98 44.6963C182.328 44.803 182.675 44.9096 182.968 45.043C183.262 45.1496 183.502 45.3096 183.743 45.4963C183.956 45.7096 184.063 45.9763 184.063 46.2696C184.063 46.6163 183.93 46.963 183.663 47.1763C183.315 47.443 182.888 47.5763 182.461 47.5496C182.034 47.5763 181.58 47.443 181.26 47.1496C180.966 46.8296 180.832 46.4296 180.859 46.003H179.871C179.871 46.3496 179.925 46.6696 180.058 46.9896C180.298 47.603 180.779 48.0563 181.393 48.2696C182.087 48.5096 182.862 48.5096 183.556 48.2696C183.849 48.163 184.143 48.003 184.383 47.7896C184.597 47.603 184.784 47.363 184.891 47.0963C184.997 46.8296 185.078 46.5363 185.078 46.2696C185.104 45.8696 184.997 45.4696 184.757 45.123C184.544 44.8296 184.303 44.5896 183.983 44.4296C183.663 44.243 183.342 44.1096 182.995 44.003C182.648 43.8963 182.301 43.7896 182.007 43.6563C181.713 43.5496 181.473 43.3896 181.233 43.203C181.019 42.9896 180.913 42.723 180.913 42.4296C180.913 42.2696 180.939 42.1096 181.019 41.9496C181.099 41.7896 181.206 41.6563 181.34 41.5496C181.473 41.4163 181.66 41.3363 181.82 41.2563C182.034 41.1763 182.247 41.1496 182.461 41.1496C182.835 41.1496 183.209 41.3096 183.476 41.5763C183.743 41.8696 183.903 42.2963 183.876 42.6963H184.864C184.864 42.3763 184.811 42.0296 184.677 41.7363C184.57 41.443 184.383 41.1763 184.17 40.963C183.956 40.7496 183.689 40.563 183.396 40.4296C183.102 40.2963 182.781 40.243 182.461 40.243C182.114 40.243 181.767 40.2963 181.446 40.4296C181.153 40.5363 180.886 40.723 180.646 40.9363C180.432 41.123 180.245 41.363 180.112 41.6296C179.978 41.8696 179.925 42.163 179.925 42.4296C179.871 42.8296 179.978 43.2296 180.218 43.5763ZM187.908 45.2563V48.4296H188.896V45.2563L191.379 40.2963H190.311L188.388 44.163L186.466 40.2963H185.398L187.908 45.2563ZM192.366 43.5763C192.58 43.8696 192.82 44.1096 193.141 44.2696C193.461 44.4563 193.781 44.5896 194.129 44.6963C194.476 44.803 194.823 44.9096 195.116 45.043C195.41 45.1496 195.65 45.3096 195.891 45.4963C196.104 45.7096 196.211 45.9763 196.211 46.2696C196.211 46.6163 196.078 46.963 195.811 47.1763C195.463 47.443 195.036 47.5763 194.609 47.5496C194.182 47.5763 193.728 47.443 193.408 47.1496C193.114 46.8296 192.98 46.4296 193.007 46.003H192.019C192.019 46.3496 192.073 46.6696 192.206 46.9896C192.446 47.603 192.927 48.0563 193.541 48.2696C194.235 48.5096 195.01 48.5096 195.704 48.2696C195.997 48.163 196.291 48.003 196.531 47.7896C196.745 47.603 196.932 47.363 197.039 47.0963C197.146 46.8296 197.226 46.5363 197.226 46.2696C197.252 45.8696 197.146 45.4696 196.905 45.123C196.692 44.8296 196.451 44.5896 196.131 44.4296C195.811 44.243 195.49 44.1096 195.143 44.003C194.796 43.8963 194.449 43.7896 194.155 43.6563C193.862 43.5496 193.621 43.3896 193.381 43.203C193.167 42.9896 193.061 42.723 193.061 42.4296C193.061 42.2696 193.087 42.1096 193.167 41.9496C193.247 41.7896 193.354 41.6563 193.488 41.5496C193.621 41.4163 193.808 41.3363 193.968 41.2563C194.182 41.1763 194.396 41.1496 194.609 41.1496C194.983 41.1496 195.357 41.3096 195.624 41.5763C195.891 41.8696 196.051 42.2963 196.024 42.6963H197.012C197.012 42.3763 196.959 42.0296 196.825 41.7363C196.718 41.443 196.531 41.1763 196.318 40.963C196.104 40.7496 195.837 40.563 195.544 40.4296C195.25 40.2963 194.93 40.243 194.609 40.243C194.262 40.243 193.915 40.2963 193.595 40.4296C193.301 40.5363 193.034 40.723 192.794 40.9363C192.58 41.123 192.393 41.363 192.26 41.6296C192.126 41.8696 192.073 42.163 192.073 42.4296C192.046 42.8296 192.153 43.2296 192.366 43.5763ZM203.366 40.2963H197.68V41.203H200.029V48.4296H201.017V41.203H203.366V40.2963ZM205.502 47.523V44.6696H209.133V43.7896H205.502V41.203H209.454V40.2963H204.514V48.4296H209.587V47.523H205.502ZM214.9 46.803L211.99 40.2963H211.189V48.4296H212.177V42.9363L214.58 48.4296H215.194L217.597 42.9363V48.4296H218.585V40.2963H217.784L214.9 46.803Z" fill="white"/>
</g>
<defs>
<linearGradient id="paint0_linear_98_492" x1="16.4263" y1="0.589844" x2="6.29141" y2="48.3282" gradientUnits="userSpaceOnUse">
<stop stop-color="#FAD126" stop-opacity="0.996"/>
<stop offset="1" stop-color="#FF544F"/>
</linearGradient>
<clipPath id="clip0_98_492">
<rect width="220" height="48" fill="white" transform="translate(0 0.589844)"/>
</clipPath>
</defs>
</svg>
